<svg t="1592194692996" class="icon" viewBox="0 0 1024 1024" version="1.1" xmlns="http://www.w3.org/2000/svg" p-id="3749" width="26" height="26"><path d="M826.7 200.2c-30.9-30.9-81-30.9-111.9 0L197.3 717.7c-30.9 30.9-30.9 81 0 111.9 30.9 30.9 81 30.9 111.9 0l517.5-517.5c30.9-30.9 30.9-81 0-111.9z" p-id="3750" fill="#13227a"></path><path d="M826.7 711.9L309.2 194.4c-30.9-30.9-81-30.9-111.9 0-30.9 30.9-30.9 81 0 111.9l517.5 517.5c30.9 30.9 81 30.9 111.9 0 30.9-30.9 30.9-81 0-111.9z" p-id="3751" fill="#13227a"></path></svg>