<svg t="1592149198084" class="icon" viewBox="0 0 1024 1024" version="1.1" xmlns="http://www.w3.org/2000/svg" p-id="3178" width="16" height="16"><path d="M51.712 182.272v663.552c0 71.168 57.856 129.024 129.024 129.024h663.552c71.168 0 129.024-57.856 129.024-129.024V233.984l-92.16 92.16v519.168c0 20.48-16.384 36.864-36.864 36.864H180.736c-20.48 0-36.864-16.384-36.864-36.864V181.76c0-20.48 16.384-36.864 36.864-36.864h519.168l92.16-92.16H180.736c-71.168 0.512-129.024 58.368-129.024 129.536z" p-id="3179" fill="#31b48d"></path><path d="M470.528 444.928l108.544 107.52 313.344-312.32-108.032-108.032zM376.832 645.632l182.272-73.728-108.032-107.52zM964.608 126.976l-67.584-67.072c-11.264-11.264-33.28-7.168-48.64 8.192l-43.008 42.496 108.032 107.52 43.008-42.496c16.384-15.36 19.456-37.376 8.192-48.64z" p-id="3180" fill="#31b48d"></path></svg>